<svg width="160" height="28" viewBox="0 0 160 28" fill="none" xmlns="http://www.w3.org/2000/svg">
<path fill-rule="evenodd" clip-rule="evenodd" d="M0 26.8547H3.84668V0H0V26.8547ZM17.8486 27.2836C20.926 27.2836 23.6406 26.398 25.9981 24.6266L24.3935 21.7523C23.5527 22.365 22.5416 22.8608 21.3656 23.2396C20.1896 23.6183 19.0631 23.8077 17.9915 23.8077C16.2165 23.8077 14.7987 23.3565 13.7382 22.4597C12.6776 21.5629 12.0071 20.343 11.7269 18.8111H26.4542C26.5476 18.1761 26.5971 17.5466 26.5971 16.9339C26.5971 13.9816 25.7343 11.6309 24.0088 9.88183C22.3053 8.16058 20.0907 7.29718 17.3595 7.29718C14.513 7.29718 12.194 8.24414 10.397 10.1325C8.62206 11.9986 7.73733 14.3771 7.73733 17.257C7.73733 20.0199 8.59459 22.3817 10.3091 24.3425C12.0236 26.3033 14.535 27.2836 17.8486 27.2836ZM22.7064 15.6249H11.7214C12.0016 14.1376 12.6501 12.94 13.6612 12.0264C14.6778 11.1184 15.9088 10.6617 17.354 10.6617C18.7773 10.6617 19.9863 11.1184 20.9754 12.0264C21.9646 12.94 22.5416 14.1376 22.7064 15.6249ZM62.1074 27.3171C64.6957 27.3171 66.8059 26.2754 68.438 24.1977H68.4435V26.8547H72.2572V0H68.372V10.4222C66.6685 8.33883 64.5693 7.30275 62.0745 7.30275C59.3653 7.30275 57.1287 8.26642 55.3538 10.2049C53.5568 12.1434 52.6611 14.5052 52.6611 17.2904C52.6611 20.1034 53.5568 22.4876 55.3538 24.4483C57.1287 26.359 59.3763 27.3171 62.1074 27.3171ZM62.591 23.7409C60.7941 23.7409 59.3378 23.1282 58.2168 21.8971C57.1012 20.6661 56.5407 19.1342 56.5352 17.2904C56.5352 15.4968 57.0958 13.9816 58.2168 12.7561C59.3378 11.5028 60.7941 10.8789 62.591 10.8789C64.388 10.8789 65.8442 11.5028 66.9652 12.7561C68.0863 13.9816 68.6468 15.4968 68.6468 17.2904C68.6468 19.1342 68.0863 20.6716 66.9652 21.8971C65.8442 23.1282 64.388 23.7409 62.591 23.7409ZM82.8191 27.3171C84.8963 27.3171 86.5833 26.7545 87.8912 25.6181C89.1936 24.4818 89.8475 23.078 89.853 21.4013C89.853 19.3236 88.7814 17.7193 86.6328 16.583C86.0942 16.2989 85.2095 15.8978 83.9731 15.3798L82.0497 14.5665C80.9946 14.1209 80.4726 13.419 80.4726 12.4776C80.4726 11.8872 80.6979 11.3914 81.154 10.9903C81.6101 10.5893 82.2201 10.3887 82.9894 10.3887C84.6215 10.3887 85.9953 11.085 87.1164 12.4776L89.3529 10.0656C87.9077 8.10488 85.8415 7.1245 83.1598 7.1245C81.2474 7.1245 79.6868 7.64254 78.4723 8.6842C77.3073 9.72586 76.7248 11.0349 76.7248 12.6169C76.7248 14.6946 77.7305 16.2655 79.7362 17.3294C79.9341 17.4464 80.3022 17.6246 80.8463 17.8697L81.0441 17.9589C81.3518 18.0981 81.709 18.2541 82.1157 18.4268C83.3521 18.9002 84.1105 19.2178 84.3907 19.3849C85.4623 19.9029 86.0008 20.6326 86.0008 21.5796C86.0008 22.2425 85.7096 22.7995 85.1271 23.2618C84.5446 23.7242 83.7972 23.9526 82.8905 23.9526C81.9783 23.9526 81.0881 23.6963 80.2143 23.1894C79.3351 22.6825 78.6207 21.9639 78.0602 21.0448L75.5763 23.312C76.3456 24.6099 77.3733 25.6014 78.6537 26.2865C79.9396 26.9773 81.3244 27.3171 82.8191 27.3171ZM101.888 27.3115C104.476 27.3115 106.619 26.2865 108.323 24.2311V26.8492H112.032V7.75395H108.323V10.411C106.625 8.32769 104.476 7.29161 101.888 7.29161C99.1565 7.29161 96.9034 8.22186 95.1339 10.0879C93.359 11.954 92.4742 14.3158 92.4742 17.1734C92.4742 20.0589 93.359 22.4653 95.1339 24.4038C96.9089 26.3423 99.1565 27.3115 101.888 27.3115ZM102.41 23.7409C100.613 23.7409 99.1565 23.1282 98.0354 21.8971C96.9144 20.6661 96.3594 19.1453 96.3594 17.335C96.3594 15.5135 96.9144 13.9872 98.0354 12.7617C99.1565 11.5084 100.613 10.8845 102.41 10.8845C104.157 10.8845 105.619 11.5084 106.784 12.7617C107.927 13.9872 108.498 15.5023 108.498 17.296C108.498 19.1119 107.927 20.6382 106.784 21.8637C105.619 23.117 104.157 23.7409 102.41 23.7409ZM117 26.8547H120.846V0H117V26.8547ZM134.843 27.2836C137.926 27.2836 140.64 26.398 142.998 24.6266L141.393 21.7523C140.552 22.365 139.541 22.8608 138.365 23.2396C137.189 23.6183 136.063 23.8077 134.991 23.8077C133.216 23.8077 131.798 23.3565 130.738 22.4597C129.677 21.5629 129.007 20.343 128.726 18.8111H143.454C143.547 18.1761 143.591 17.5466 143.591 16.9339C143.591 13.9816 142.728 11.6309 141.003 9.88183C139.299 8.16058 137.085 7.29718 134.354 7.29718C131.507 7.29718 129.188 8.24414 127.391 10.1325C125.616 11.9986 124.731 14.3771 124.731 17.257C124.731 20.0199 125.589 22.3817 127.303 24.3425C129.018 26.3033 131.529 27.2836 134.843 27.2836ZM139.706 15.6249H128.721C129.001 14.1376 129.65 12.94 130.661 12.0264C131.677 11.1184 132.908 10.6617 134.354 10.6617C135.777 10.6617 136.986 11.1184 137.975 12.0264C138.964 12.94 139.541 14.1376 139.706 15.6249ZM152.966 27.3171C155.043 27.3171 156.73 26.7545 158.038 25.6181C159.346 24.4818 160 23.078 160 21.4013C160 19.3236 158.923 17.7193 156.78 16.583C156.241 16.2989 155.357 15.8978 154.12 15.3798L152.197 14.5665C151.147 14.1209 150.625 13.419 150.625 12.4776C150.625 11.8872 150.856 11.3914 151.307 10.9903C151.757 10.5893 152.373 10.3887 153.142 10.3887C154.774 10.3887 156.148 11.085 157.269 12.4776L159.505 10.0656C158.06 8.10488 155.994 7.1245 153.312 7.1245C151.4 7.1245 149.839 7.64254 148.625 8.6842C147.46 9.72586 146.877 11.0349 146.877 12.6169C146.877 14.6946 147.883 16.2655 149.889 17.3294C150.087 17.4464 150.455 17.6246 150.999 17.8697L151.197 17.9589C151.504 18.0981 151.862 18.2541 152.268 18.4268C153.505 18.9002 154.263 19.2178 154.543 19.3849C155.615 19.9029 156.153 20.6326 156.153 21.5796C156.153 22.2425 155.862 22.7995 155.28 23.2618C154.692 23.7242 153.944 23.9526 153.038 23.9526C152.131 23.9526 151.235 23.6963 150.361 23.1894C149.482 22.6825 148.768 21.9639 148.207 21.0448L145.723 23.312C146.493 24.6099 147.515 25.6014 148.801 26.2865C150.087 26.9773 151.471 27.3171 152.966 27.3171Z" fill="white"/>
<path fill-rule="evenodd" clip-rule="evenodd" d="M49.4683 14.5609C49.1826 12.9121 48.3198 11.5362 47.1933 10.2829C44.605 7.38073 41.3683 6.38921 37.659 7.00195C34.6201 7.50328 32.3176 9.23009 30.6965 11.876C29.4381 13.9315 29.0315 16.193 29.3887 18.527C29.8667 21.6409 31.4988 24.0974 34.1805 25.7518C37.5931 27.8518 41.0936 27.7627 44.7204 25.9523C44.9347 26.0192 45.1491 26.0916 45.3634 26.164C45.9294 26.3478 46.5064 26.5428 47.0889 26.7155C47.3636 26.799 47.6549 26.8603 47.9352 26.8603C48.8803 26.8547 49.4244 26.1139 49.1441 25.1948C49.0452 24.8717 48.9408 24.5542 48.8309 24.2367C48.6825 23.8022 48.5396 23.3677 48.4187 22.9276C48.3473 22.677 48.3583 22.3427 48.4682 22.1143C49.0342 20.9446 49.4519 19.7804 49.6607 18.4546C49.875 17.0954 49.6881 15.831 49.4683 14.5609ZM33.6805 13.1906C32.2187 15.3965 32.0539 17.7528 33.2134 20.1369C34.2849 22.3483 36.0874 23.6685 38.4833 24.0361C39.8626 24.2534 41.2529 24.1141 42.5113 23.4401C42.5773 23.4067 42.6432 23.3732 42.7092 23.3343L42.7117 23.3329C43.4911 22.91 44.2379 22.5049 45.204 23.0557C44.9952 22.1812 45.0556 21.4738 45.5008 20.7496C47.8307 16.9506 46.2426 12.1824 42.0497 10.5168C38.9999 9.30808 35.6038 10.2773 33.6805 13.1906Z" fill="white"/>
</svg>
