<svg width="180" height="30" viewBox="0 0 180 30" fill="none" xmlns="http://www.w3.org/2000/svg">
<g id="Logo_Nowports" clip-path="url(#clip0_99_789)">
<g id="Vector">
<path d="M29.1414 4.58396C29.1414 2.05309 27.0966 0 24.5759 0C22.5241 0 20.7897 1.35718 20.2138 3.22677V3.23716L18.1 10.0716L13.9207 2.4824H5.8C5.8 2.4824 5.55862 3.0225 5.43448 3.42758C5.03793 4.71206 0.234483 20.2954 0.234483 20.2954C0.0827586 20.749 0 21.2372 0 21.7426C0 24.2735 2.04483 26.3266 4.56552 26.3266C6.61724 26.3266 8.35172 24.9694 8.92759 23.0998V23.0894L11.0414 16.255L15.2241 23.8442H23.3414C23.3414 23.8442 23.5828 23.3041 23.7069 22.899C24.1034 21.6111 28.9069 6.0277 28.9069 6.0277C29.0586 5.57415 29.1414 5.08598 29.1414 4.5805V4.58396ZM4.56897 24.412C3.09655 24.412 1.9 23.2106 1.9 21.7323C1.9 20.2539 3.09655 19.0525 4.56897 19.0525C6.04138 19.0525 7.23793 20.2504 7.23793 21.7323C7.23793 23.2141 6.04138 24.412 4.56897 24.412ZM14.9172 20.3681L11.6241 14.3855L14.2207 5.97576L17.5103 11.9585L14.9207 20.3681H14.9172ZM24.5759 7.2637C23.1034 7.2637 21.9069 6.06578 21.9069 4.58396C21.9069 3.10213 23.1034 1.90421 24.5759 1.90421C26.0483 1.90421 27.2448 3.1056 27.2448 4.58396C27.2448 6.06232 26.0483 7.2637 24.5759 7.2637Z" fill="white"/>
<path d="M160.707 2.98788H156.31V5.0652C156.31 6.55741 155.503 7.69648 153.821 7.69648H153.014V12.0138H155.859V18.9279C155.859 22.1408 157.897 24.1212 161.228 24.1212C162.779 24.1212 163.586 23.7646 163.783 23.6676V19.5753C163.493 19.6411 163.007 19.738 162.49 19.738C161.424 19.738 160.71 19.3814 160.71 18.0485V12.0104H163.848V7.69302H160.71V2.98442L160.707 2.98788Z" fill="white"/>
<path d="M144.972 9.38949C145.366 8.13271 146.503 7.26023 147.883 7.26023V7.26369C149.628 7.26369 150.969 8.64165 150.969 10.3624C150.969 12.0831 149.628 13.4299 147.883 13.4299C146.5 13.4299 145.366 12.5574 144.972 11.3179V23.8338H140.059V7.69647H144.972V9.38949Z" fill="white"/>
<path d="M40.2759 9.54529C41.1483 8.02192 43.1207 7.27409 44.769 7.27409V7.26716C48.8103 7.26716 50.6207 10.1581 50.6207 13.6965V23.8269H45.7069V14.5413C45.7069 12.9521 44.8655 11.7507 43.0862 11.7507C41.469 11.7507 40.4345 12.9521 40.4345 14.5759V23.8304H35.5207V7.69301H40.2759V9.54529Z" fill="white"/>
<path d="M87.7104 7.69647L90.8448 17.2729L93.531 7.69647H98.3483L93.369 23.8303H88.4862L84.9931 13.4091L81.5655 23.8303H76.5862L71.5414 7.69647H76.6483L79.3345 17.2418L82.5034 7.69647H87.7104Z" fill="white"/>
<path fill-rule="evenodd" clip-rule="evenodd" d="M110.341 7.30524C108.045 7.30524 106.3 8.31274 105.621 9.35141V7.69647H100.866V30H105.779V22.5666C106.524 23.4772 108.076 24.1904 110.145 24.1904C114.638 24.1904 117.81 20.652 117.81 15.7149C117.81 10.7778 114.997 7.30524 110.341 7.30524ZM109.338 19.7726C107.431 19.7726 105.717 18.4085 105.717 15.7461C105.717 13.0837 107.431 11.7542 109.338 11.7542C111.245 11.7542 112.993 13.0525 112.993 15.7461C112.993 18.4397 111.279 19.7726 109.338 19.7726Z" fill="white"/>
<path d="M172.572 13.378L174.707 13.8003L174.703 13.8038C178.034 14.4859 179.652 16.4974 179.652 18.869C179.652 21.6284 177.548 24.322 173.248 24.322C168.203 24.322 166.586 21.0433 166.459 19.2568L170.631 18.5089C170.697 19.6099 171.472 20.6832 173.155 20.6832C174.417 20.6832 175.031 20.0012 175.031 19.2879C175.031 18.7028 174.645 18.2147 173.448 17.955L171.603 17.5326C168.176 16.7848 166.817 14.8355 166.817 12.5643C166.817 9.61108 169.403 7.20831 172.993 7.20831C177.648 7.20831 179.266 10.1304 179.428 12.0139L175.352 12.7617C175.221 11.6919 174.541 10.7813 173.055 10.7813C172.117 10.7813 171.31 11.3318 171.31 12.1766C171.31 12.8586 171.862 13.2499 172.572 13.378Z" fill="white"/>
<path fill-rule="evenodd" clip-rule="evenodd" d="M62.131 7.20831C57.3448 7.20831 53.5931 10.7467 53.5931 15.7461C53.5931 20.7455 57.3448 24.3185 62.131 24.3185C66.9172 24.3185 70.669 20.7455 70.669 15.7461C70.669 10.7467 66.9517 7.20831 62.131 7.20831ZM62.131 19.7727C60.2862 19.7727 58.5103 18.4432 58.5103 15.7461C58.5103 13.0491 60.2896 11.7542 62.131 11.7542C63.9724 11.7542 65.7517 13.0214 65.7517 15.7461C65.7517 18.4709 64.0069 19.7727 62.131 19.7727Z" fill="white"/>
<path fill-rule="evenodd" clip-rule="evenodd" d="M119.814 15.7461C119.814 10.7467 123.566 7.20831 128.352 7.20831C133.172 7.20831 136.89 10.7467 136.89 15.7461C136.89 20.7455 133.138 24.3185 128.352 24.3185C123.566 24.3185 119.814 20.7455 119.814 15.7461ZM124.731 15.7461C124.731 18.4432 126.51 19.7727 128.352 19.7727C130.228 19.7727 131.972 18.4709 131.972 15.7461C131.972 13.0214 130.193 11.7542 128.352 11.7542C126.51 11.7542 124.731 13.0491 124.731 15.7461Z" fill="white"/>
</g>
</g>
<defs>
<clipPath id="clip0_99_789">
<rect width="179.655" height="30" fill="white"/>
</clipPath>
</defs>
</svg>
