<?xml version="1.0" encoding="utf-8"?>
<!-- Generator: Adobe Illustrator 25.2.3, SVG Export Plug-In . SVG Version: 6.00 Build 0)  -->
<svg version="1.1" id="Capa_1" xmlns="http://www.w3.org/2000/svg" xmlns:xlink="http://www.w3.org/1999/xlink" x="0px" y="0px"
	 viewBox="0 0 1695 504.9" style="enable-background:new 0 0 1695 504.9;" xml:space="preserve">
<style type="text/css">
	.st0{fill:#FFFFFF;}
	.st1{fill:#FFFFFF;}
</style>
<rect x="3491.5" y="10684.9" class="st0" width="963.8" height="538.6"/>
<g>
	<path class="st1" d="M227.4,157c17.5,18.5,26.2,44.4,26.2,77.4v123c0,9.7-3.4,18-10.3,24.8c-6.8,6.8-15.1,10.2-24.8,10.2
		c-9.7,0-18-3.4-24.8-10.2c-6.8-6.8-10.3-15.1-10.3-24.8V246.3c0-15.8-4.9-28.5-14.8-38c-9.9-9.5-22-14.3-36.4-14.3
		c-14.8,0-27.2,5.2-37.2,15.6C84.9,220,79.9,233,79.9,248.4v109c0,9.7-3.4,18-10.3,24.8c-6.8,6.8-15.1,10.2-24.8,10.2
		s-18-3.4-24.8-10.2c-6.8-6.8-10.2-15.1-10.2-24.8V167.5c0-9.7,3.4-18,10.2-24.8s15.1-10.2,24.8-10.2c9,0,16.7,2.9,23.2,8.6
		c6.5,5.8,10.2,12.9,11.3,21.6c18.7-22.3,44.4-33.4,77.1-33.4C186.3,129.2,210,138.5,227.4,157z"/>
	<path class="st1" d="M600.8,382c-7-7-10.5-15.4-10.5-25.1V47.2c0-9.7,3.5-18.1,10.5-25.1s15.4-10.5,25.1-10.5
		c9.7,0,18.1,3.5,25.1,10.5s10.5,15.4,10.5,25.1v309.7c0,9.7-3.5,18.1-10.5,25.1s-15.4,10.5-25.1,10.5
		C616.1,392.5,607.8,389,600.8,382z"/>
	<path class="st1" d="M721.9,93.9C714,86.2,710,76.4,710,64.5s4-21.7,11.9-29.4s17.4-11.6,28.6-11.6c11.1,0,20.7,3.9,28.6,11.6
		C787,42.8,791,52.6,791,64.5s-4,21.7-11.9,29.4s-17.5,11.6-28.6,11.6C739.3,105.5,729.8,101.6,721.9,93.9z M725.4,382
		c-7-7-10.5-15.4-10.5-25.1V168.1c0-9.7,3.5-18.1,10.5-25.1s15.4-10.5,25.1-10.5c9.7,0,18.1,3.5,25.1,10.5s10.5,15.4,10.5,25.1
		v188.8c0,9.7-3.5,18.1-10.5,25.1s-15.4,10.5-25.1,10.5S732.4,389,725.4,382z"/>
	<path class="st1" d="M1055,157c17.4,18.5,26.2,44.3,26.2,77.4v123c0,9.7-3.4,18-10.3,24.8c-6.8,6.8-15.1,10.2-24.8,10.2
		c-9.7,0-18-3.4-24.8-10.2c-6.8-6.8-10.3-15.1-10.3-24.8V246.3c0-15.8-4.9-28.5-14.8-38s-22-14.3-36.4-14.3
		c-14.7,0-27.2,5.2-37.2,15.6c-10.1,10.4-15.1,23.4-15.1,38.8v109c0,9.7-3.4,18-10.2,24.8s-15.1,10.2-24.8,10.2s-18-3.4-24.8-10.2
		c-6.8-6.8-10.2-15.1-10.2-24.8V167.5c0-9.7,3.4-18,10.2-24.8s15.1-10.2,24.8-10.2c9,0,16.7,2.9,23.2,8.6
		c6.5,5.8,10.2,12.9,11.3,21.6c18.7-22.3,44.4-33.4,77.1-33.4C1013.9,129.2,1037.6,138.5,1055,157z"/>
	<path class="st1" d="M1372.8,143c7,7,10.5,15.4,10.5,25.1v192.1c0,20.1-1.9,36.7-5.7,49.6c-3.8,12.9-10.2,25.2-19.2,36.7
		c-12.6,16.5-28.2,28.9-46.9,37c-18.7,8.1-39.2,12.1-61.5,12.1c-38.5,0-73.2-9-104.1-27c-4.7-2.5-8.5-6.2-11.3-11.1
		c-2.9-4.9-4.3-10.2-4.3-15.9c0-8.6,3.1-16,9.2-22.1s13.5-9.2,22.1-9.2c5.7,0,11,1.4,15.6,4.3c20.1,11.5,41.9,17.3,65.3,17.3
		c27,0,46.9-8.3,59.9-24.8c3.2-4.3,5.6-9.5,7-15.6s2.3-14.7,2.7-25.9c-21.2,20.1-46.2,30.2-75,30.2c-21.2,0-40.7-5.7-58.5-17.3
		c-17.8-11.5-31.8-27.4-42.1-47.7c-10.2-20.3-15.4-43.1-15.4-68.2c0-25.2,5.1-47.9,15.4-68.2c10.2-20.3,24.3-36.2,42.1-47.7
		c17.8-11.5,37.3-17.3,58.5-17.3c14.4,0,28.1,2.7,41,8.1c12.9,5.4,24.6,12.9,35.1,22.7c1.8-7.9,5.9-14.5,12.4-19.7
		s13.8-7.8,22.1-7.8C1357.4,132.5,1365.8,136,1372.8,143z M1296.7,311.6c11.7-12.9,17.5-29.3,17.5-49.1c0-19.8-5.8-36.1-17.5-49.1
		c-11.7-12.9-26-19.4-42.9-19.4s-31.2,6.5-42.9,19.4c-11.7,13-17.5,29.3-17.5,49.1c0,19.8,5.8,36.1,17.5,49.1
		c11.7,12.9,26,19.4,42.9,19.4S1285,324.5,1296.7,311.6z"/>
	<path class="st1" d="M1673.8,143c7,7,10.5,15.4,10.5,25.1v188.8c0,9.7-3.5,18.1-10.5,25.1s-15.4,10.5-25.1,10.5
		c-8.3,0-15.6-2.6-22.1-7.8c-6.5-5.2-10.6-11.8-12.4-19.7c-10.4,9.7-22.1,17.3-35.1,22.7c-12.9,5.4-26.6,8.1-41,8.1
		c-21.2,0-40.7-5.7-58.5-17.3c-17.8-11.5-31.8-27.4-42.1-47.7c-10.2-20.3-15.4-43.1-15.4-68.2c0-25.2,5.1-47.9,15.4-68.2
		s24.3-36.2,42.1-47.7c17.8-11.5,37.3-17.3,58.5-17.3c14.4,0,28.1,2.7,41,8.1c12.9,5.4,24.6,12.9,35.1,22.7
		c1.8-7.9,5.9-14.5,12.4-19.7s13.8-7.8,22.1-7.8C1658.4,132.5,1666.8,136,1673.8,143z M1597.8,311.6c11.7-12.9,17.5-29.3,17.5-49.1
		c0-19.8-5.8-36.1-17.5-49.1c-11.7-12.9-26-19.4-42.9-19.4s-31.2,6.5-42.9,19.4c-11.7,13-17.5,29.3-17.5,49.1
		c0,19.8,5.8,36.1,17.5,49.1c11.7,12.9,26,19.4,42.9,19.4S1586.1,324.5,1597.8,311.6z"/>
	<path class="st1" d="M531.4,142.7c-6.8-6.8-15.1-10.2-24.8-10.2s-18,3.4-24.8,10.2s-10.2,15.1-10.2,24.8v109
		c0,15.5-5,28.4-15.1,38.8c-9.9,10.3-22.2,15.5-36.7,15.6c-14.5-0.1-26.7-5.3-36.7-15.6C373,304.9,368,291.9,368,276.5v-109
		c0-9.7-3.4-18-10.2-24.8c-6.8-6.8-15.1-10.2-24.8-10.2s-18,3.4-24.8,10.2S298,157.8,298,167.5v123v4.8l0.2,0.1
		c0.8,30.7,9.4,55,26,72.5c13.8,14.6,31.2,22.8,52.6,25.6c1.2,0.4,2.5,0.6,3.9,0.6c1.3,0,2.6,0.1,3.8,0.1c3.3,0.2,6.7,0.3,10.2,0.3
		c0,0,0,0,0.1,0c18.5,0.6,37.1,1.1,50,1.1c29.9,0,53.5-9.3,70.9-27.8c16.7-17.8,25.4-42.3,26-73.5l0.1-0.2v-3.7v-123
		C541.7,157.8,538.3,149.6,531.4,142.7z"/>
</g>
</svg>
